<mxfile host="app.diagrams.net" modified="2023-10-03T15:12:55.047Z" agent="Mozilla/5.0 (Windows NT 10.0; Win64; x64) AppleWebKit/537.36 (KHTML, like Gecko) Chrome/117.0.0.0 Safari/537.36" version="22.0.2" etag="mHr5aM6bScvKvJ87oV3i" type="github">
  <diagram name="Page-1" id="3GLALVdoXWJ4bluslPiY">
    <mxGraphModel>
      <root>
        <mxCell id="0" />
        <mxCell id="1" parent="0" />
      </root>
    </mxGraphModel>
  </diagram>
</mxfile>
